<svg width="40" height="40" viewBox="0 0 40 40" fill="none" xmlns="http://www.w3.org/2000/svg">
<g clip-path="url(#clip0_4039_11631)">
<path d="M19.9999 3.33333H14.1666C12.6195 3.33333 11.1358 3.94791 10.0418 5.04187C8.94783 6.13583 8.33325 7.61957 8.33325 9.16666C8.33325 10.7138 8.94783 12.1975 10.0418 13.2915C11.1358 14.3854 12.6195 15 14.1666 15M19.9999 3.33333V15M19.9999 3.33333H25.8333C26.5993 3.33333 27.3578 3.48421 28.0656 3.77736C28.7733 4.07052 29.4164 4.5002 29.958 5.04187C30.4997 5.58355 30.9294 6.22661 31.2225 6.93434C31.5157 7.64207 31.6666 8.40062 31.6666 9.16666C31.6666 9.93271 31.5157 10.6912 31.2225 11.399C30.9294 12.1067 30.4997 12.7498 29.958 13.2915C29.4164 13.8331 28.7733 14.2628 28.0656 14.556C27.3578 14.8491 26.5993 15 25.8333 15M19.9999 15H14.1666M19.9999 15H25.8333M19.9999 15V26.6667M14.1666 15C12.6195 15 11.1358 15.6146 10.0418 16.7085C8.94783 17.8025 8.33325 19.2862 8.33325 20.8333C8.33325 22.3804 8.94783 23.8642 10.0418 24.9581C11.1358 26.0521 12.6195 26.6667 14.1666 26.6667M25.8333 15C25.0672 15 24.3087 15.1509 23.6009 15.444C22.8932 15.7372 22.2501 16.1669 21.7085 16.7085C21.1668 17.2502 20.7371 17.8933 20.444 18.601C20.1508 19.3087 19.9999 20.0673 19.9999 20.8333C19.9999 21.5994 20.1508 22.3579 20.444 23.0656C20.7371 23.7734 21.1668 24.4164 21.7085 24.9581C22.2501 25.4998 22.8932 25.9295 23.6009 26.2226C24.3087 26.5158 25.0672 26.6667 25.8333 26.6667C26.5993 26.6667 27.3578 26.5158 28.0656 26.2226C28.7733 25.9295 29.4164 25.4998 29.958 24.9581C30.4997 24.4164 30.9294 23.7734 31.2225 23.0656C31.5157 22.3579 31.6666 21.5994 31.6666 20.8333C31.6666 20.0673 31.5157 19.3087 31.2225 18.601C30.9294 17.8933 30.4997 17.2502 29.958 16.7085C29.4164 16.1669 28.7733 15.7372 28.0656 15.444C27.3578 15.1509 26.5993 15 25.8333 15ZM14.1666 26.6667C12.6195 26.6667 11.1358 27.2812 10.0418 28.3752C8.94783 29.4692 8.33325 30.9529 8.33325 32.5C8.33325 34.0471 8.94783 35.5308 10.0418 36.6248C11.1358 37.7187 12.6195 38.3333 14.1666 38.3333C15.7137 38.3333 17.1974 37.7187 18.2914 36.6248C19.3853 35.5308 19.9999 34.0471 19.9999 32.5V26.6667M14.1666 26.6667H19.9999" stroke="#1E1E1E" stroke-width="3.5" stroke-linecap="round" stroke-linejoin="round"/>
</g>
<defs>
<clipPath id="clip0_4039_11631">
<rect width="40" height="40" fill="white"/>
</clipPath>
</defs>
</svg>
