<svg width="32" height="32" viewBox="0 0 32 32" fill="none" xmlns="http://www.w3.org/2000/svg">
<g clip-path="url(#clip0_4039_11508)">
<path d="M16.0001 2.66667H11.3334C10.0957 2.66667 8.90875 3.15834 8.03358 4.03351C7.15841 4.90868 6.66675 6.09566 6.66675 7.33334C6.66675 8.57102 7.15841 9.758 8.03358 10.6332C8.90875 11.5083 10.0957 12 11.3334 12M16.0001 2.66667V12M16.0001 2.66667H20.6667C21.2796 2.66667 21.8864 2.78738 22.4526 3.0219C23.0188 3.25642 23.5332 3.60017 23.9666 4.03351C24.3999 4.46685 24.7437 4.9813 24.9782 5.54748C25.2127 6.11367 25.3334 6.7205 25.3334 7.33334C25.3334 7.94617 25.2127 8.55301 24.9782 9.11919C24.7437 9.68538 24.3999 10.1998 23.9666 10.6332C23.5332 11.0665 23.0188 11.4103 22.4526 11.6448C21.8864 11.8793 21.2796 12 20.6667 12M16.0001 12H11.3334M16.0001 12H20.6667M16.0001 12V21.3333M11.3334 12C10.0957 12 8.90875 12.4917 8.03358 13.3668C7.15841 14.242 6.66675 15.429 6.66675 16.6667C6.66675 17.9043 7.15841 19.0913 8.03358 19.9665C8.90875 20.8417 10.0957 21.3333 11.3334 21.3333M20.6667 12C20.0539 12 19.4471 12.1207 18.8809 12.3552C18.3147 12.5898 17.8003 12.9335 17.3669 13.3668C16.9336 13.8002 16.5898 14.3146 16.3553 14.8808C16.1208 15.447 16.0001 16.0538 16.0001 16.6667C16.0001 17.2795 16.1208 17.8863 16.3553 18.4525C16.5898 19.0187 16.9336 19.5332 17.3669 19.9665C17.8003 20.3998 18.3147 20.7436 18.8809 20.9781C19.4471 21.2126 20.0539 21.3333 20.6667 21.3333C21.2796 21.3333 21.8864 21.2126 22.4526 20.9781C23.0188 20.7436 23.5332 20.3998 23.9666 19.9665C24.3999 19.5332 24.7437 19.0187 24.9782 18.4525C25.2127 17.8863 25.3334 17.2795 25.3334 16.6667C25.3334 16.0538 25.2127 15.447 24.9782 14.8808C24.7437 14.3146 24.3999 13.8002 23.9666 13.3668C23.5332 12.9335 23.0188 12.5898 22.4526 12.3552C21.8864 12.1207 21.2796 12 20.6667 12ZM11.3334 21.3333C10.0957 21.3333 8.90875 21.825 8.03358 22.7002C7.15841 23.5753 6.66675 24.7623 6.66675 26C6.66675 27.2377 7.15841 28.4247 8.03358 29.2998C8.90875 30.175 10.0957 30.6667 11.3334 30.6667C12.5711 30.6667 13.7581 30.175 14.6332 29.2998C15.5084 28.4247 16.0001 27.2377 16.0001 26V21.3333M11.3334 21.3333H16.0001" stroke="#1E1E1E" stroke-width="3" stroke-linecap="round" stroke-linejoin="round"/>
</g>
<defs>
<clipPath id="clip0_4039_11508">
<rect width="32" height="32" fill="white"/>
</clipPath>
</defs>
</svg>
